<?xml version="1.0" encoding="utf-8"?>
<!-- Generator: Adobe Illustrator 16.0.0, SVG Export Plug-In . SVG Version: 6.00 Build 0)  -->
<!DOCTYPE svg PUBLIC "-//W3C//DTD SVG 1.1//EN" "http://www.w3.org/Graphics/SVG/1.1/DTD/svg11.dtd">
<svg version="1.1" id="Layer_1" xmlns="http://www.w3.org/2000/svg" xmlns:xlink="http://www.w3.org/1999/xlink" x="0px" y="0px"
	 width="186.399px" height="71px" viewBox="0 0 186.399 71" enable-background="new 0 0 186.399 71" xml:space="preserve">
<g>
	<path fill-rule="evenodd" clip-rule="evenodd" fill="#FF9500" d="M112.229,54.843c-9.682,7.145-23.716,10.943-35.802,10.943
		c-16.938,0-32.191-6.261-43.734-16.684c-0.906-0.817-0.098-1.936,0.992-1.302c12.453,7.246,27.853,11.61,43.759,11.61
		c10.73,0,22.523-2.227,33.378-6.83C112.458,51.887,113.83,53.659,112.229,54.843"/>
	<path fill-rule="evenodd" clip-rule="evenodd" fill="#FF9500" d="M116.257,50.243c-1.238-1.585-8.186-0.751-11.306-0.377
		c-0.945,0.113-1.092-0.713-0.24-1.311c5.542-3.892,14.622-2.769,15.677-1.465c1.063,1.313-0.279,10.418-5.472,14.762
		c-0.799,0.668-1.56,0.313-1.204-0.571C114.881,58.363,117.498,51.831,116.257,50.243"/>
	<path fill-rule="evenodd" clip-rule="evenodd" d="M105.171,21.06v-3.782c0.004-0.576,0.437-0.959,0.959-0.957l16.951-0.002
		c0.542,0,0.977,0.394,0.977,0.954v3.244c-0.005,0.544-0.463,1.253-1.275,2.381l-8.78,12.536c3.258-0.076,6.706,0.413,9.668,2.077
		c0.668,0.375,0.847,0.93,0.898,1.476v4.036c0,0.555-0.608,1.199-1.248,0.864c-5.218-2.733-12.141-3.032-17.91,0.033
		c-0.59,0.313-1.206-0.32-1.206-0.878v-3.836c0-0.613,0.012-1.663,0.631-2.599l10.173-14.595l-8.857-0.001
		C105.61,22.012,105.175,21.626,105.171,21.06"/>
	<path fill-rule="evenodd" clip-rule="evenodd" d="M43.339,44.682h-5.157c-0.49-0.032-0.882-0.4-0.923-0.872l0.005-26.468
		c0-0.529,0.444-0.951,0.995-0.951l4.802-0.002c0.503,0.024,0.906,0.405,0.938,0.889v3.455h0.097
		c1.252-3.341,3.611-4.901,6.787-4.901c3.225,0,5.247,1.561,6.691,4.901c1.253-3.341,4.093-4.901,7.125-4.901
		c2.167,0,4.524,0.892,5.969,2.896c1.636,2.228,1.301,5.458,1.301,8.299l-0.005,16.703c0,0.527-0.445,0.952-0.995,0.952h-5.151
		c-0.517-0.033-0.924-0.443-0.924-0.95l-0.002-14.032c0-1.113,0.097-3.897-0.145-4.956c-0.385-1.783-1.54-2.285-3.032-2.285
		c-1.252,0-2.552,0.836-3.082,2.172c-0.529,1.338-0.481,3.564-0.481,5.069v14.03c0,0.527-0.444,0.952-0.993,0.952h-5.151
		c-0.518-0.033-0.926-0.443-0.926-0.95l-0.005-14.032c0-2.952,0.48-7.295-3.178-7.295c-3.706,0-3.562,4.231-3.562,7.295
		l-0.002,14.03C44.334,44.257,43.889,44.682,43.339,44.682"/>
	<path fill-rule="evenodd" clip-rule="evenodd" d="M138.651,15.831c7.654,0,11.793,6.573,11.793,14.927
		c0,8.074-4.572,14.481-11.793,14.481c-7.51,0-11.601-6.574-11.601-14.76C127.05,22.236,131.189,15.831,138.651,15.831
		 M138.698,21.234c-3.802,0-4.042,5.178-4.042,8.409c0,3.23-0.048,10.137,3.995,10.137c3.996,0,4.188-5.57,4.188-8.966
		c0-2.229-0.097-4.902-0.771-7.019C141.491,21.957,140.334,21.234,138.698,21.234"/>
	<path fill-rule="evenodd" clip-rule="evenodd" d="M160.371,44.682h-5.138c-0.516-0.033-0.925-0.443-0.925-0.95l-0.009-26.479
		c0.044-0.483,0.471-0.862,0.99-0.862l4.783-0.002c0.45,0.023,0.822,0.329,0.917,0.74v4.05h0.097
		c1.444-3.622,3.466-5.348,7.027-5.348c2.312,0,4.574,0.835,6.019,3.119c1.347,2.116,1.347,5.68,1.347,8.243v16.655
		c-0.057,0.469-0.479,0.833-0.988,0.833h-5.169c-0.478-0.031-0.863-0.383-0.918-0.833v-14.37c0-2.897,0.337-7.131-3.225-7.131
		c-1.252,0-2.407,0.836-2.985,2.115c-0.722,1.616-0.819,3.23-0.819,5.016v14.251C161.366,44.257,160.92,44.682,160.371,44.682"/>
	<path fill-rule="evenodd" clip-rule="evenodd" d="M91.659,32.041c0,2.011,0.049,3.684-0.966,5.471
		c-0.818,1.451-2.122,2.346-3.568,2.346c-1.979,0-3.136-1.509-3.136-3.741c0-4.393,3.939-5.191,7.67-5.191V32.041z M96.857,44.615
		c-0.34,0.306-0.833,0.327-1.218,0.12c-1.712-1.423-2.02-2.081-2.956-3.437c-2.83,2.883-4.835,3.748-8.502,3.748
		c-4.341,0-7.719-2.68-7.719-8.037c0-4.187,2.268-7.032,5.5-8.429c2.798-1.229,6.706-1.451,9.696-1.787v-0.669
		c0-1.229,0.098-2.679-0.627-3.74c-0.628-0.948-1.834-1.34-2.895-1.34c-1.967,0-3.715,1.008-4.146,3.096
		c-0.089,0.466-0.428,0.927-0.895,0.95l-4.999-0.542c-0.423-0.096-0.891-0.434-0.77-1.079c1.149-6.063,6.625-7.895,11.531-7.895
		c2.51,0,5.789,0.669,7.768,2.567c2.51,2.345,2.268,5.471,2.268,8.876v8.033c0,2.418,1.004,3.478,1.946,4.779
		c0.33,0.47,0.403,1.027-0.018,1.371c-1.053,0.883-2.924,2.508-3.954,3.425L96.857,44.615z"/>
	<path fill-rule="evenodd" clip-rule="evenodd" d="M24.055,32.041c0,2.011,0.049,3.684-0.964,5.471
		c-0.82,1.451-2.123,2.346-3.57,2.346c-1.977,0-3.136-1.509-3.136-3.741c0-4.393,3.941-5.191,7.67-5.191V32.041z M29.255,44.615
		c-0.341,0.306-0.834,0.327-1.218,0.12c-1.715-1.423-2.021-2.081-2.956-3.437c-2.832,2.883-4.836,3.748-8.502,3.748
		c-4.343,0-7.72-2.68-7.72-8.037c0-4.187,2.268-7.032,5.499-8.429c2.798-1.229,6.706-1.451,9.696-1.787v-0.669
		c0-1.229,0.097-2.679-0.626-3.74c-0.628-0.948-1.834-1.34-2.894-1.34c-1.968,0-3.718,1.008-4.146,3.096
		c-0.09,0.466-0.429,0.927-0.896,0.95l-4.998-0.542c-0.424-0.096-0.893-0.434-0.771-1.079c1.149-6.063,6.624-7.895,11.533-7.895
		c2.508,0,5.789,0.669,7.767,2.567c2.508,2.345,2.269,5.471,2.269,8.876v8.033c0,2.418,1.003,3.478,1.944,4.779
		c0.329,0.47,0.404,1.027-0.016,1.371c-1.054,0.883-2.926,2.508-3.955,3.425L29.255,44.615z"/>
</g>
</svg>
