<?xml version="1.0" encoding="utf-8"?>
<!-- Generator: Adobe Illustrator 16.0.0, SVG Export Plug-In . SVG Version: 6.00 Build 0)  -->
<!DOCTYPE svg PUBLIC "-//W3C//DTD SVG 1.1//EN" "http://www.w3.org/Graphics/SVG/1.1/DTD/svg11.dtd">
<svg version="1.1" id="Layer_1" xmlns="http://www.w3.org/2000/svg" xmlns:xlink="http://www.w3.org/1999/xlink" x="0px" y="0px"
	 width="164.308px" height="164.309px" viewBox="0 0 164.308 164.309" enable-background="new 0 0 164.308 164.309"
	 xml:space="preserve">
<g>
	<rect fill="#FFFFFF" width="164.308" height="164.309"/>
	<path fill="#EA8E50" d="M80.419,83.785V33.697c-26.762,0-48.456,21.695-48.456,48.457s21.694,48.457,48.456,48.457
		c26.215,0,47.565-20.82,48.426-46.826H80.419z"/>
	<path fill="#FFC866" d="M80.417,83.521V41.547c-22.426,0-40.607,18.18-40.607,40.607c0,22.426,18.181,40.605,40.607,40.605
		c21.968,0,39.86-17.445,40.581-39.238H80.417z"/>
	<path fill="#FF544F" d="M75.608,54.607c0,3.051-2.471,5.521-5.52,5.521c-3.049,0-5.52-2.471-5.52-5.521
		c0-3.047,2.471-5.52,5.52-5.52C73.138,49.088,75.608,51.561,75.608,54.607"/>
	<path fill="#FF544F" d="M104.252,107.475c0,3.049-2.471,5.521-5.521,5.521c-3.049,0-5.52-2.473-5.52-5.521s2.471-5.52,5.52-5.52
		C101.781,101.955,104.252,104.426,104.252,107.475"/>
	<path fill="#FF544F" d="M66.665,99.879c0,3.049-2.471,5.52-5.52,5.52c-3.049,0-5.521-2.471-5.521-5.52s2.471-5.52,5.521-5.52
		C64.194,94.359,66.665,96.83,66.665,99.879"/>
	<path fill="#FF544F" d="M85.923,95.652c0,3.047-2.471,5.52-5.52,5.52c-3.049,0-5.521-2.473-5.521-5.52
		c0-3.049,2.471-5.52,5.521-5.52C83.453,90.133,85.923,92.604,85.923,95.652"/>
	<path fill="#FF544F" d="M60.635,78.266c0,3.049-2.471,5.52-5.52,5.52c-3.049,0-5.52-2.471-5.52-5.52s2.471-5.52,5.52-5.52
		C58.164,72.746,60.635,75.217,60.635,78.266"/>
	<path fill="#EA8E50" d="M52.228,71.768h-0.004c-0.561-0.002-1.015-0.455-1.015-1.018c0-0.258,0.072-6.32,6.33-9.512
		c0.502-0.256,1.115-0.057,1.371,0.445c0.255,0.5,0.056,1.113-0.445,1.371c-5.118,2.607-5.217,7.492-5.218,7.699
		C53.242,71.314,52.787,71.768,52.228,71.768"/>
	<path fill="#EA8E50" d="M92.718,98.896h-0.004c-0.561-0.002-1.015-0.455-1.015-1.018c0-0.256,0.072-6.32,6.33-9.512
		c0.502-0.254,1.115-0.057,1.371,0.445c0.255,0.502,0.056,1.115-0.445,1.371c-5.118,2.609-5.216,7.494-5.218,7.701
		C93.732,98.443,93.277,98.896,92.718,98.896"/>
	<path fill="#EA8E50" d="M66.301,76.352c0.001-0.002,0.002-0.002,0.003-0.004c0.398-0.395,1.04-0.396,1.437,0.002
		c0.181,0.182,4.419,4.521,2.25,11.203c-0.174,0.535-0.749,0.828-1.284,0.654c-0.535-0.176-0.829-0.75-0.655-1.285
		c1.774-5.463-1.61-8.986-1.756-9.135C65.904,77.389,65.906,76.746,66.301,76.352"/>
	<path fill="#EA8E50" d="M111.022,88.557c0.001-0.002,0.002-0.002,0.003-0.004c0.398-0.395,1.039-0.396,1.436,0.002
		c0.182,0.182,4.42,4.52,2.25,11.201c-0.174,0.535-0.748,0.828-1.283,0.654c-0.536-0.174-0.829-0.748-0.655-1.283
		c1.774-5.465-1.611-8.986-1.756-9.135C110.625,89.594,110.627,88.951,111.022,88.557"/>
	<path fill="#EA8E50" d="M71.303,102.254c0.001,0,0.002-0.002,0.003-0.002c0.399-0.395,1.04-0.395,1.437,0.002
		c0.181,0.182,4.419,4.52,2.25,11.201c-0.174,0.535-0.749,0.828-1.284,0.654c-0.535-0.172-0.829-0.748-0.655-1.283
		c1.774-5.463-1.61-8.988-1.755-9.135C70.906,103.293,70.908,102.65,71.303,102.254"/>
	<path fill="#EA8E50" d="M46.903,86.857c0.001-0.002,0.002-0.002,0.003-0.004c0.399-0.395,1.04-0.395,1.436,0.002
		c0.182,0.182,4.42,4.521,2.251,11.201c-0.174,0.537-0.749,0.83-1.284,0.656s-0.828-0.748-0.654-1.283
		c1.773-5.465-1.611-8.988-1.756-9.137C46.506,87.895,46.508,87.252,46.903,86.857"/>
</g>
</svg>
