<?xml version="1.0" encoding="utf-8"?>
<!-- Generator: Adobe Illustrator 16.0.0, SVG Export Plug-In . SVG Version: 6.00 Build 0)  -->
<!DOCTYPE svg PUBLIC "-//W3C//DTD SVG 1.1//EN" "http://www.w3.org/Graphics/SVG/1.1/DTD/svg11.dtd">
<svg version="1.1" id="Layer_1" xmlns="http://www.w3.org/2000/svg" xmlns:xlink="http://www.w3.org/1999/xlink" x="0px" y="0px"
	 width="164.308px" height="164.309px" viewBox="0 0 164.308 164.309" enable-background="new 0 0 164.308 164.309"
	 xml:space="preserve">
<g>
	<rect fill="#FFFFFF" width="164.308" height="164.309"/>
	<path fill="#D5D5D5" d="M101.903,89.688c0,22.6-18.322,40.922-40.923,40.922c-22.602,0-40.924-18.322-40.924-40.922
		c0-22.602,18.322-40.924,40.924-40.924C83.581,48.764,101.903,67.086,101.903,89.688"/>
	<path fill="#828282" d="M71.567,68.197c0,5.848-4.74,10.588-10.588,10.588c-5.847,0-10.587-4.74-10.587-10.588
		s4.74-10.586,10.587-10.586C66.827,57.611,71.567,62.35,71.567,68.197"/>
	<path fill="#828282" d="M71.567,111.176c0,5.848-4.74,10.588-10.588,10.588c-5.847,0-10.587-4.74-10.587-10.588
		c0-5.846,4.74-10.586,10.587-10.586C66.827,100.59,71.567,105.33,71.567,111.176"/>
	<path fill="#828282" d="M82.47,100.273c-5.848,0-10.587-4.74-10.587-10.586c0-5.848,4.739-10.588,10.587-10.588
		c5.847,0,10.587,4.74,10.587,10.588C93.057,95.533,88.316,100.273,82.47,100.273"/>
	<path fill="#828282" d="M39.49,100.273c-5.847,0-10.587-4.74-10.587-10.586c0-5.848,4.74-10.588,10.587-10.588
		s10.587,4.74,10.587,10.588C50.077,95.533,45.337,100.273,39.49,100.273"/>
	<polygon fill="#EA604E" points="92.131,130.609 84.802,130.609 75.028,33.697 88.872,33.697 	"/>
	<polygon fill="#E8E8E8" points="105.975,130.609 92.13,130.609 88.873,33.697 102.717,33.697 	"/>
	<polygon fill="#EA604E" points="113.305,130.609 105.975,130.609 102.718,33.697 116.563,33.697 	"/>
	<polygon fill="#EA604E" points="134.479,130.609 127.148,130.609 130.406,33.697 144.252,33.697 	"/>
	<polygon fill="#E8E8E8" points="127.149,130.609 113.304,130.609 116.563,33.697 130.407,33.697 	"/>
</g>
</svg>
