<?xml version="1.0" encoding="utf-8"?>
<!-- Generator: Adobe Illustrator 16.0.0, SVG Export Plug-In . SVG Version: 6.00 Build 0)  -->
<!DOCTYPE svg PUBLIC "-//W3C//DTD SVG 1.1//EN" "http://www.w3.org/Graphics/SVG/1.1/DTD/svg11.dtd">
<svg version="1.1" id="Layer_1" xmlns="http://www.w3.org/2000/svg" xmlns:xlink="http://www.w3.org/1999/xlink" x="0px" y="0px"
	 width="186.399px" height="62.199px" viewBox="0 0 186.399 62.199" enable-background="new 0 0 186.399 62.199"
	 xml:space="preserve">
<g>
	<path fill-rule="evenodd" clip-rule="evenodd" fill="#F08020" d="M170.085,36.939c5.272-1.206,6.022-3.811-1.984-4.997
		C142.109,28.096,146.257,42.39,170.085,36.939"/>
	<path fill-rule="evenodd" clip-rule="evenodd" fill="#83A72E" d="M142.771,15.344c4.971-3.382,7.968-1.836,3.257,5.81
		C130.737,45.975,120.306,30.622,142.771,15.344"/>
	<path fill-rule="evenodd" clip-rule="evenodd" fill="#00A9EA" d="M80.336,18.895c1.838-6.967,5.65-7.959,7.263,2.623
		C92.832,55.866,72.032,50.383,80.336,18.895"/>
	<path fill-rule="evenodd" clip-rule="evenodd" fill="#BAD230" d="M61.985,18.895c-4.026-6.967-8.15-7.959-6.438,2.623
		C61.102,55.866,80.18,50.383,61.985,18.895"/>
	<path fill-rule="evenodd" clip-rule="evenodd" fill="#5C9B38" d="M70.169,17.28c2.96-5.755,9.942-5.284,7.232,4.981
		c-3.258,12.347-8.842,22.694-14.464,32.865c-3.647,6.6-4.771,5.046-3.615-1.527C61.501,41.188,64.282,28.729,70.169,17.28"/>
	<path fill-rule="evenodd" clip-rule="evenodd" fill="#007932" d="M61.904,40.746c1.111-4.729,2.439-9.41,4.125-13.985
		C73.68,43.935,67.796,49.827,61.904,40.746"/>
	<path fill-rule="evenodd" clip-rule="evenodd" fill="#00A9EA" d="M99.449,18.895c-4.025-6.967-8.149-7.959-6.438,2.623
		C98.567,55.866,117.645,50.383,99.449,18.895"/>
	<path fill-rule="evenodd" clip-rule="evenodd" fill="#0084CB" d="M88.517,18.895c4.021-6.967,8.146-7.959,6.439,2.623
		C89.419,55.866,70.339,50.383,88.517,18.895"/>
	<path fill-rule="evenodd" clip-rule="evenodd" fill="#0071A1" d="M93.982,13.646c1.253,0.306,1.808,2.713,0.976,7.872
		c-0.289,1.792-0.617,3.47-0.972,5.047c-0.356-1.577-0.686-3.255-0.976-5.047C92.175,16.359,92.729,13.952,93.982,13.646"/>
	<path fill-rule="evenodd" clip-rule="evenodd" fill="#0071A1" d="M83.476,44.987c-3.614,0.021-4.542-8.673,3.999-24.236
		c0.042,0.249,0.084,0.504,0.124,0.767C90.052,37.618,86.785,44.967,83.476,44.987"/>
	<path fill-rule="evenodd" clip-rule="evenodd" fill="#9E2389" d="M112.865,18.895c1.76-6.967,5.563-7.959,7.292,2.623
		C125.772,55.866,104.911,50.383,112.865,18.895"/>
	<path fill-rule="evenodd" clip-rule="evenodd" fill="#E70087" d="M107.575,19.674c-5.976-1.285-6.827-4.063,2.25-5.324
		C139.286,10.25,134.583,25.479,107.575,19.674"/>
	<path fill-rule="evenodd" clip-rule="evenodd" fill="#560054" d="M115.724,13.748c0.361-0.021,0.716-0.04,1.063-0.057
		c1.25,0.441,2.47,2.703,3.281,7.302c-2.195,0.063-4.732-0.066-7.596-0.455c0.123-0.54,0.252-1.086,0.393-1.644
		C113.575,16.083,114.618,14.245,115.724,13.748"/>
	<path fill-rule="evenodd" clip-rule="evenodd" fill="#87C13F" d="M131.346,18.895c1.713-6.967,5.413-7.959,7.097,2.623
		C143.909,55.866,123.604,50.383,131.346,18.895"/>
	<path fill-rule="evenodd" clip-rule="evenodd" fill="#66912E" d="M137.961,19.023c0.175,0.748,0.335,1.576,0.481,2.495
		c0.502,3.155,0.785,5.973,0.894,8.467C129.341,40.117,124.728,30.496,137.961,19.023"/>
	<path fill-rule="evenodd" clip-rule="evenodd" fill="#83A72E" d="M151.496,24.883c0.036,3.307-1.695,4.2-3.902-0.292
		C140.427,10.012,151.332,9.949,151.496,24.883"/>
	<path fill-rule="evenodd" clip-rule="evenodd" fill="#EC5A22" d="M164.061,21.222c1.558-7.895-0.895-11.355-6.572-2.264
		C139.058,48.47,157.029,56.903,164.061,21.222"/>
	<path fill-rule="evenodd" clip-rule="evenodd" fill="#D43B20" d="M158.576,38.159c0.984-1.86,1.959-4.134,2.871-6.855
		C147.003,30.794,147.303,37.622,158.576,38.159"/>
	<path fill-rule="evenodd" clip-rule="evenodd" fill="#FFC605" d="M174.566,36.827c1.539,7.809-0.887,11.233-6.502,2.24
		C149.834,9.876,167.609,1.535,174.566,36.827"/>
	<path fill-rule="evenodd" clip-rule="evenodd" fill="#D43B20" d="M167.128,37.532c-1.282-2.15-2.367-4.184-3.269-6.083
		c1.313,0.108,2.723,0.27,4.241,0.493c3.724,0.552,5.553,1.41,5.915,2.293c0.021,0.099,0.044,0.199,0.066,0.3
		c0.035,0.916-1.455,1.823-3.998,2.404C169.063,37.173,168.079,37.368,167.128,37.532"/>
	<path fill-rule="evenodd" clip-rule="evenodd" fill="#F1861F" d="M37.972,18.68c4.022-6.969,8.146-7.958,6.441,2.624
		C38.876,55.65,19.795,50.166,37.972,18.68"/>
	<path fill-rule="evenodd" clip-rule="evenodd" fill="#9E2389" d="M17.933,18.895c4.025-6.967,8.149-7.959,6.438,2.623
		C18.815,55.866-0.264,50.383,17.933,18.895"/>
	<path fill-rule="evenodd" clip-rule="evenodd" fill="#F28E1E" d="M22.186,18.746c-0.242-6.769,3.268-7.504,8.028,3.06
		C45.671,56.093,23.282,49.339,22.186,18.746"/>
	<path fill-rule="evenodd" clip-rule="evenodd" fill="#EC5A22" d="M33.024,28.691c3.371,9.355,3.102,14.383,1.303,15.696
		c-0.354,0.181-0.693,0.296-1.015,0.349c-0.555,0.024-1.181-0.173-1.846-0.58C29.756,42.432,29.647,37.102,33.024,28.691"/>
	<path fill-rule="evenodd" clip-rule="evenodd" fill="#E70087" d="M48.726,18.895c-4.026-6.967-8.151-7.959-6.439,2.623
		C47.844,55.866,66.922,50.383,48.726,18.895"/>
	<path fill-rule="evenodd" clip-rule="evenodd" fill="#EC5A22" d="M23.733,13.788c1.012,0.639,1.396,3.054,0.639,7.729
		c-0.353,2.173-0.758,4.185-1.204,6.042c-0.516-2.663-0.867-5.604-0.982-8.813C22.083,15.856,22.664,14.069,23.733,13.788"/>
	<path fill-rule="evenodd" clip-rule="evenodd" fill="#EC5A22" d="M43.347,13.628c1.316,0.211,1.917,2.608,1.066,7.89
		c-0.313,1.943-0.672,3.75-1.063,5.44c-0.391-1.69-0.75-3.497-1.064-5.44C41.432,16.236,42.032,13.839,43.347,13.628"/>
</g>
</svg>
