<?xml version="1.0" encoding="utf-8"?>
<!-- Generator: Adobe Illustrator 16.0.0, SVG Export Plug-In . SVG Version: 6.00 Build 0)  -->
<!DOCTYPE svg PUBLIC "-//W3C//DTD SVG 1.1//EN" "http://www.w3.org/Graphics/SVG/1.1/DTD/svg11.dtd">
<svg version="1.1" id="Layer_1" xmlns="http://www.w3.org/2000/svg" xmlns:xlink="http://www.w3.org/1999/xlink" x="0px" y="0px"
	 width="186.399px" height="62.199px" viewBox="0 0 186.399 62.199" enable-background="new 0 0 186.399 62.199"
	 xml:space="preserve">
<g>
	<path fill-rule="evenodd" clip-rule="evenodd" fill="#1E3988" d="M33.859,13.437c0.002-0.86,0.581-1.29,1.291-1.29h12.582
		c3.86,0.439,6.556,2.405,6.819,7.572v6.991c0,1.036-0.06,1.91-0.359,2.92c-1.001,3.364-3.406,5.036-6.999,5.271h-5.396v8.557
		c0,0.643-0.54,0.963-1.192,0.963h-5.666c-0.69,0-1.197-0.386-1.195-1.156L33.859,13.437z M41.854,20.077h3.349
		c0.752,0,1.371,0.617,1.371,1.373v4.038c0,0.755-0.619,1.375-1.371,1.375h-3.349V20.077z"/>
	<path fill-rule="evenodd" clip-rule="evenodd" fill="#1E3988" d="M60.752,12.185h8.794c5.146,0.3,7.933,3.002,7.859,8.607v20.752
		c0,1.608-1.624,2.827-3.014,2.827H62.865c-3.498,0-5.808-2.725-6.383-5.397c-0.552-2.566-0.141-5.671-0.141-8.292
		c0-4.046,2.682-8.058,7.146-8.058h4.692c1.366-0.073,1.304-3.056,0-2.95h-7.333c-0.742,0-1.265-0.396-1.335-1.152v-5.436
		C59.512,12.392,60.086,12.185,60.752,12.185 M65.6,30.127h2.683c0.633,0,1.152,0.52,1.152,1.152v4.674
		c0,0.637-0.52,1.155-1.152,1.155H65.6c-0.633,0-1.149-0.519-1.149-1.155v-4.674C64.451,30.646,64.967,30.127,65.6,30.127"/>
	<path fill-rule="evenodd" clip-rule="evenodd" fill="#1E3988" d="M80.105,13.647v13.109c0.317,4.11,4.007,7.187,8.021,7.187h3.713
		c1.535,0,1.441,2.579,0,2.579h-8.032c-0.869,0-1.187,0.456-1.187,1.223v5.771c0,0.581,0.47,1.018,1.085,1.018h7.441
		c6.206,0,9.739-2.978,9.737-9.65V13.139c0-0.709-0.448-0.984-0.879-0.984h-6.236c-0.577,0-0.913,0.625-0.913,1.083v11.917
		c0,0.511-0.285,0.813-0.745,0.813h-2.952c-0.678,0-1.05-0.368-1.05-1.019V13.443c0-0.763-0.307-1.323-1.15-1.323h-5.998
		C80.277,12.12,80.105,12.796,80.105,13.647"/>
	<path fill-rule="evenodd" clip-rule="evenodd" fill="#00A9EA" d="M104.021,19.035v-5.667c0-0.61,0.499-1.108,1.105-1.108h1.364
		c3.515-0.731,4.352-2.794,6.5-5.11c1.321-1.432,2.48-1.808,3.334-0.29v5.4h3.222c0.609,0,1.105,0.498,1.105,1.108v5.667
		c0,0.606-0.498,1.107-1.105,1.107h-3.224v23.226c0,0.61-0.496,1.106-1.104,1.106h-5.67c-0.608,0-1.104-0.496-1.104-1.106V20.143
		h-3.318C104.522,20.143,104.021,19.645,104.021,19.035"/>
	<path fill-rule="evenodd" clip-rule="evenodd" fill="#00A9EA" d="M144.175,42.998c0,0.755-0.626,1.373-1.384,1.373h-5.31
		c-0.764,0-1.386-0.618-1.386-1.373V26.486V21.68c0.042-2.305-4.602-2.662-4.602,0v21.318c0,0.755-0.621,1.373-1.384,1.373h-5.307
		c-0.762,0-1.387-0.618-1.387-1.373V13.442c0-0.763,0.625-1.379,1.387-1.379h5.307c0.763,0,1.384,0.616,1.384,1.379v0.407
		c3.105-2.97,8.482-2.501,11.346,0.585c5.386-6.18,14.615-0.675,14.188,6.102c0,7.491-0.066,14.909-0.066,22.462
		c0,0.755-0.625,1.373-1.383,1.373h-5.311c-0.762,0-1.385-0.618-1.385-1.373V21.82c-0.302-2.957-4.769-2.266-4.764,0
		C144.12,28.859,144.175,35.896,144.175,42.998"/>
</g>
</svg>
