<?xml version="1.0" encoding="utf-8"?>
<!-- Generator: Adobe Illustrator 16.0.0, SVG Export Plug-In . SVG Version: 6.00 Build 0)  -->
<!DOCTYPE svg PUBLIC "-//W3C//DTD SVG 1.1//EN" "http://www.w3.org/Graphics/SVG/1.1/DTD/svg11.dtd">
<svg version="1.1" id="Layer_1" xmlns="http://www.w3.org/2000/svg" xmlns:xlink="http://www.w3.org/1999/xlink" x="0px" y="0px"
	 width="164.308px" height="164.309px" viewBox="0 0 164.308 164.309" enable-background="new 0 0 164.308 164.309"
	 xml:space="preserve">
<g>
	<rect fill="#FFFFFF" width="164.308" height="164.309"/>
	<polygon fill="#C8A679" points="84.1,72.049 46.715,72.049 46.715,145.193 54.201,164.309 93.314,164.309 100.801,145.193 	"/>
	<path fill="#65A0B7" d="M117.594,126.207c0,5.5-4.5,10-10,10H68.042c-5.5,0-10-4.5-10-10v-82.51c0-5.5,4.5-10,10-10h39.552
		c5.5,0,10,4.5,10,10V126.207z"/>
	<path fill="#FFFFFF" d="M110.688,122.303c0,1.65-1.351,3-3,3H67.947c-1.65,0-3-1.35-3-3V47.602c0-1.65,1.35-3,3-3h39.741
		c1.649,0,3,1.35,3,3V122.303z"/>
	<polygon fill="#E3C08A" points="100.801,105.26 91.682,105.26 80.671,145.193 100.801,145.193 	"/>
	<path fill="#ED8C8C" d="M87.817,101.676c-9.221,0-16.722-7.502-16.722-16.723S78.597,68.23,87.817,68.23
		c9.222,0,16.723,7.502,16.723,16.723S97.039,101.676,87.817,101.676"/>
	<polygon fill="#FFFFFF" points="95.247,82.959 89.813,82.959 89.813,77.523 85.823,77.523 85.823,82.959 80.389,82.959 
		80.389,86.947 85.823,86.947 85.823,92.383 89.813,92.383 89.813,86.947 95.247,86.947 	"/>
</g>
</svg>
