<?xml version="1.0" encoding="utf-8"?>
<!-- Generator: Adobe Illustrator 16.0.0, SVG Export Plug-In . SVG Version: 6.00 Build 0)  -->
<!DOCTYPE svg PUBLIC "-//W3C//DTD SVG 1.1//EN" "http://www.w3.org/Graphics/SVG/1.1/DTD/svg11.dtd">
<svg version="1.1" id="Layer_1" xmlns="http://www.w3.org/2000/svg" xmlns:xlink="http://www.w3.org/1999/xlink" x="0px" y="0px"
	 width="164.308px" height="164.309px" viewBox="0 0 164.308 164.309" enable-background="new 0 0 164.308 164.309"
	 xml:space="preserve">
<g>
	<rect fill="#FFFFFF" width="164.308" height="164.309"/>
	<path fill="#D5D5D5" d="M134.383,78.354c-1.446-0.227-2.845,0.76-3.085,2.225l-2.674,16.471h-12.619V82.438h-2.688v14.611H99.571
		V81.961h-2.687v15.088H83.856v-14.85h-2.688v14.85H67.424v-14.85h-2.688v14.85H51.229V81.961H48.54v15.088H35.043l-2.02-15.67
		c-0.188-1.471-1.488-2.52-3.011-2.322c-1.472,0.189-2.512,1.537-2.322,3.01l5.953,46.199c0.173,1.342,1.316,2.344,2.667,2.344
		h90.02c1.318,0,2.442-0.955,2.655-2.256l7.619-46.914C136.842,79.975,135.847,78.594,134.383,78.354 M128.187,99.736l-2.309,14.213
		l-9.873-0.025V99.736H128.187z M113.316,99.736v14.182l-13.745-0.037V99.736H113.316z M67.424,116.488l13.745,0.033v8.713H67.424
		V116.488z M64.736,125.234H51.229v-8.787l13.508,0.035V125.234z M83.856,116.529l13.028,0.035v8.67H83.856V116.529z
		 M99.571,116.568l13.745,0.037v8.629H99.571V116.568z M96.885,99.736v14.141l-13.028-0.035V99.736H96.885z M81.169,99.736v14.098
		l-13.745-0.033V99.736H81.169z M64.736,99.736v14.059l-13.508-0.035V99.736H64.736z M48.54,99.736v14.016l-11.348-0.029
		L35.39,99.736H48.54z M37.538,116.41l11.002,0.029v8.795h-9.864L37.538,116.41z M116.005,125.234v-8.623l9.437,0.023l-1.396,8.6
		H116.005z"/>
	<path fill="#D5D5D5" d="M48.028,80.104c-1.058,0-2.113-0.414-2.906-1.236c-1.543-1.604-1.493-4.156,0.11-5.701l25.244-24.293
		c1.604-1.545,4.153-1.494,5.701,0.111c1.544,1.605,1.494,4.156-0.109,5.701L50.824,78.977
		C50.041,79.729,49.033,80.104,48.028,80.104"/>
	<path fill="#D5D5D5" d="M113.28,80.342c-1.045,0-2.089-0.404-2.877-1.207L85.396,53.652c-1.559-1.59-1.534-4.143,0.054-5.703
		c1.591-1.557,4.147-1.531,5.702,0.053l25.005,25.482c1.559,1.59,1.535,4.143-0.054,5.703
		C115.32,79.957,114.299,80.342,113.28,80.342"/>
	<path fill="#B1C0C9" d="M138.811,77.924c0,2.652-2.25,4.82-5,4.82H30.497c-2.75,0-5-2.168-5-4.82c0-2.65,2.25-4.82,5-4.82h103.313
		C136.561,73.104,138.811,75.273,138.811,77.924"/>
</g>
</svg>
