<?xml version="1.0" encoding="utf-8"?>
<!-- Generator: Adobe Illustrator 16.0.0, SVG Export Plug-In . SVG Version: 6.00 Build 0)  -->
<!DOCTYPE svg PUBLIC "-//W3C//DTD SVG 1.1//EN" "http://www.w3.org/Graphics/SVG/1.1/DTD/svg11.dtd">
<svg version="1.1" id="Layer_1" xmlns="http://www.w3.org/2000/svg" xmlns:xlink="http://www.w3.org/1999/xlink" x="0px" y="0px"
	 width="200px" height="200px" viewBox="0 0 200 200" enable-background="new 0 0 200 200" xml:space="preserve">
<g>
	<rect fill="#E8E8E8" width="200" height="200"/>
	<rect x="47.758" y="39.072" fill="#FFFFFF" width="91.723" height="121.36"/>
	<path fill="#C2C2C1" d="M152.242,39.072c0,7.048-5.715,12.762-12.763,12.762s-12.762-5.714-12.762-12.762
		s5.714-12.762,12.762-12.762S152.242,32.024,152.242,39.072"/>
	<polygon fill="#FFFFFF" points="145.963,37.331 141.22,37.331 141.22,32.589 137.74,32.589 137.74,37.331 132.997,37.331 
		132.997,40.811 137.74,40.811 137.74,45.554 141.22,45.554 141.22,40.811 145.963,40.811 	"/>
	<rect x="75.89" y="71.805" fill="#C2C2C1" width="53.799" height="3.057"/>
	<rect x="75.89" y="85.014" fill="#C2C2C1" width="53.799" height="3.057"/>
	<rect x="75.89" y="98.223" fill="#C2C2C1" width="53.799" height="3.057"/>
	<rect x="75.89" y="111.432" fill="#C2C2C1" width="53.799" height="3.057"/>
	<rect x="75.89" y="124.641" fill="#C2C2C1" width="53.799" height="3.057"/>
	<rect x="75.89" y="137.85" fill="#C2C2C1" width="53.799" height="3.057"/>
	<rect x="57.549" y="71.805" fill="#C2C2C1" width="7.948" height="3.057"/>
	<rect x="57.55" y="58.596" fill="#C2C2C1" width="29.523" height="3.057"/>
	<rect x="57.549" y="85.014" fill="#C2C2C1" width="7.948" height="3.057"/>
	<rect x="57.549" y="98.223" fill="#C2C2C1" width="7.948" height="3.057"/>
	<rect x="57.549" y="111.432" fill="#C2C2C1" width="7.948" height="3.057"/>
	<rect x="57.549" y="124.641" fill="#C2C2C1" width="7.948" height="3.057"/>
	<rect x="57.549" y="137.85" fill="#C2C2C1" width="7.948" height="3.057"/>
</g>
</svg>
