<?xml version="1.0" encoding="utf-8"?>
<!-- Generator: Adobe Illustrator 16.0.0, SVG Export Plug-In . SVG Version: 6.00 Build 0)  -->
<!DOCTYPE svg PUBLIC "-//W3C//DTD SVG 1.1//EN" "http://www.w3.org/Graphics/SVG/1.1/DTD/svg11.dtd">
<svg version="1.1" id="Layer_1" xmlns="http://www.w3.org/2000/svg" xmlns:xlink="http://www.w3.org/1999/xlink" x="0px" y="0px"
	 width="200px" height="200px" viewBox="0 0 200 200" enable-background="new 0 0 200 200" xml:space="preserve">
<g>
	<rect y="0" fill="#E8E8E8" width="200" height="200.001"/>
	<polygon fill="#C8A679" points="102.397,86.327 56.334,86.327 56.334,176.448 65.559,200 113.751,200 122.976,176.448 	"/>
	<path fill="#9EC3BC" d="M143.666,155.377c0,5.5-4.5,10-10,10H80.291c-5.5,0-10-4.5-10-10V49.073c0-5.5,4.5-10,10-10h53.375
		c5.5,0,10,4.5,10,10V155.377z"/>
	<path fill="#FFFFFF" d="M135.157,148.942c0,1.65-1.35,3-3,3H81.799c-1.65,0-3-1.35-3-3V55.508c0-1.65,1.35-3,3-3h50.358
		c1.65,0,3,1.35,3,3V148.942z"/>
	<polygon fill="#E3C08A" points="122.975,127.245 111.739,127.245 98.173,176.448 122.975,176.448 	"/>
	<path fill="#ED8C8C" d="M105.721,110.438c0.713,0.729,1.864,0.727,2.578-0.008l6.104-6.287c1.734-1.738-0.868-4.35-2.602-2.609
		l-2.112,2.125c-0.48,0.484-0.87,0.32-0.87-0.359V94.84c0-1.018-0.826-1.842-1.84-1.842c-1.016,0-1.84,0.83-1.84,1.842v8.459
		c0,0.682-0.39,0.844-0.87,0.359l-2.111-2.125c-1.735-1.74-4.337,0.871-2.602,2.609L105.721,110.438z"/>
	<path fill="#ED8C8C" d="M106.979,122.829c-11.361,0-20.604-9.242-20.604-20.604s9.243-20.604,20.604-20.604
		c11.361,0,20.604,9.242,20.604,20.604S118.339,122.829,106.979,122.829 M106.979,85.926c-8.987,0-16.299,7.313-16.299,16.299
		s7.312,16.299,16.299,16.299c8.987,0,16.299-7.313,16.299-16.299S115.965,85.926,106.979,85.926"/>
</g>
</svg>
