<?xml version="1.0" encoding="utf-8"?>
<!-- Generator: Adobe Illustrator 16.0.0, SVG Export Plug-In . SVG Version: 6.00 Build 0)  -->
<!DOCTYPE svg PUBLIC "-//W3C//DTD SVG 1.1//EN" "http://www.w3.org/Graphics/SVG/1.1/DTD/svg11.dtd">
<svg version="1.1" id="Layer_1" xmlns="http://www.w3.org/2000/svg" xmlns:xlink="http://www.w3.org/1999/xlink" x="0px" y="0px"
	 width="200px" height="200px" viewBox="0 0 200 200" enable-background="new 0 0 200 200" xml:space="preserve">
<g>
	<rect fill="#E8E8E8" width="200" height="200"/>
	
		<rect x="52.974" y="63.714" transform="matrix(0.7071 -0.7071 0.7071 0.7071 -31.2255 91.8264)" fill="#A5BF4E" width="84.515" height="39.782"/>
	
		<rect x="64.713" y="69.95" transform="matrix(0.8777 -0.4793 0.4793 0.8777 -29.9718 62.2566)" fill="#B5D357" width="84.515" height="39.782"/>
	<polygon fill="#CBC8C5" points="52.127,94.536 46.408,94.536 46.408,160.432 142.255,160.432 145.273,160.432 145.273,94.536 	"/>
	<path fill="#A9A6A3" d="M150.528,133.057c0,1.216-0.986,2.203-2.203,2.203h-30.071c-1.216,0-2.202-0.987-2.202-2.203v-13.34
		c0-1.217,0.986-2.202,2.202-2.202h30.071c1.217,0,2.203,0.985,2.203,2.202V133.057z"/>
	<path fill="#FFFFFF" d="M128.217,126.308c0,2.548-2.065,4.613-4.613,4.613s-4.613-2.065-4.613-4.613
		c0-2.547,2.065-4.613,4.613-4.613S128.217,123.761,128.217,126.308"/>
</g>
</svg>
