<?xml version="1.0" encoding="utf-8"?>
<!-- Generator: Adobe Illustrator 16.0.0, SVG Export Plug-In . SVG Version: 6.00 Build 0)  -->
<!DOCTYPE svg PUBLIC "-//W3C//DTD SVG 1.1//EN" "http://www.w3.org/Graphics/SVG/1.1/DTD/svg11.dtd">
<svg version="1.1" id="Layer_1" xmlns="http://www.w3.org/2000/svg" xmlns:xlink="http://www.w3.org/1999/xlink" x="0px" y="0px"
	 width="164.308px" height="164.309px" viewBox="0 0 164.308 164.309" enable-background="new 0 0 164.308 164.309"
	 xml:space="preserve">
<g>
	<rect x="0" fill="#FFFFFF" width="164.309" height="164.309"/>
	<polygon fill="#F9C262" points="142.234,53.008 46.494,53.008 44.112,72.715 27.12,72.715 20.494,99.254 142.081,99.254 
		142.081,89.439 142.234,89.439 	"/>
	<rect x="44.223" y="43.869" fill="#E0B059" width="102.245" height="9.139"/>
	<rect x="17.838" y="99.254" fill="#E0B059" width="128.631" height="9.139"/>
	<polygon fill="#C8EAF5" points="37.648,84.689 24.681,84.689 25.543,80.459 37.648,80.459 	"/>
	<path fill="#6F6F6E" d="M133.061,108.189c0,6.766-5.484,12.25-12.25,12.25s-12.25-5.484-12.25-12.25
		c0-6.768,5.484-12.25,12.25-12.25S133.061,101.422,133.061,108.189"/>
	<path fill="#CBD6D8" d="M126.735,108.189c0,3.271-2.652,5.922-5.924,5.922s-5.923-2.65-5.923-5.922s2.651-5.924,5.923-5.924
		S126.735,104.918,126.735,108.189"/>
	<path fill="#8C9799" d="M124.655,108.189c0,2.121-1.721,3.844-3.844,3.844s-3.843-1.723-3.843-3.844
		c0-2.123,1.72-3.844,3.843-3.844S124.655,106.066,124.655,108.189"/>
	<path fill="#6F6F6E" d="M56.472,108.189c0,6.766-5.484,12.25-12.25,12.25c-6.765,0-12.25-5.484-12.25-12.25
		c0-6.768,5.485-12.25,12.25-12.25C50.988,95.939,56.472,101.422,56.472,108.189"/>
	<path fill="#CBD6D8" d="M50.145,108.189c0,3.271-2.651,5.922-5.923,5.922s-5.923-2.65-5.923-5.922s2.651-5.924,5.923-5.924
		S50.145,104.918,50.145,108.189"/>
	<path fill="#8C9799" d="M48.066,108.189c0,2.121-1.721,3.844-3.844,3.844s-3.843-1.723-3.843-3.844c0-2.123,1.72-3.844,3.843-3.844
		S48.066,106.066,48.066,108.189"/>
	<rect x="50.146" y="57.439" fill="#C8EAF5" width="15.151" height="14.639"/>
	<rect x="89.591" y="57.439" fill="#C8EAF5" width="15.151" height="14.639"/>
	<rect x="69.769" y="67.369" fill="#C8EAF5" width="15.151" height="14.639"/>
	<rect x="107.313" y="57.439" fill="#C8EAF5" width="15.151" height="14.639"/>
	<rect x="124.578" y="57.439" fill="#C8EAF5" width="15.152" height="14.639"/>
	<rect x="89.591" y="74.689" fill="#CCA151" width="52.643" height="3.25"/>
	<polyline fill="none" stroke="#CCA151" stroke-width="2" stroke-miterlimit="10" points="87.12,108.189 87.12,64.76 67.571,64.76 
		67.571,108.189 	"/>
	<path fill="#C8EAF5" d="M85.017,86.975c0,1.262-1.022,2.285-2.285,2.285c-1.262,0-2.284-1.023-2.284-2.285
		c0-1.264,1.022-2.285,2.284-2.285C83.995,84.689,85.017,85.711,85.017,86.975"/>
</g>
</svg>
